nColumns=19
nRows=44
DataType=double
version=3
OpenSimVersion=4.1
endheader
time	ground_force_calcn_r_vx	ground_force_calcn_r_vy	ground_force_calcn_r_vz	ground_force_calcn_r_px	ground_force_calcn_r_py	ground_force_calcn_r_pz	ground_force_calcn_r_mx	ground_force_calcn_r_my	ground_force_calcn_r_mz	ground_force_calcn_l_vx	ground_force_calcn_l_vy	ground_force_calcn_l_vz	ground_force_calcn_l_px	ground_force_calcn_l_py	ground_force_calcn_l_pz	ground_force_calcn_l_mx	ground_force_calcn_l_my	ground_force_calcn_l_mz
1.3	0	0	0	0	0	0	0	0	0	83.9264	1557.9	-7.90207	0.804379	0	-0.626026	0.105476	1.95792	-0.00993107
1.30833	0	0	0	0	0	0	0	0	0	136.517	1410.8	-16.7228	0.767501	0	-0.624832	0.234845	2.42695	-0.0287676
1.31667	0	0	0	0	0	0	0	0	0	192.451	1239.63	-27.0702	0.726032	0	-0.623399	0.447935	2.88528	-0.0630067
1.325	0	0	0	0	0	0	0	0	0	226.771	1054.74	-34.0032	0.687735	0	-0.621896	0.670515	3.11865	-0.10054
1.33333	0	0	0	0	0	0	0	0	0	229.715	859.368	-34.3096	0.656506	0	-0.620112	0.803944	3.00757	-0.120075
1.34167	0	0	0	0	0	0	0	0	0	211.269	657.26	-29.1287	0.629629	0	-0.618278	0.817464	2.54314	-0.112708
1.35	0	0	0	0	0	0	0	0	0	179.002	460.401	-21.7471	0.602731	0	-0.617256	0.712601	1.83285	-0.0865746
1.35833	0	0	0	0	0	0	0	0	0	133.413	286.176	-14.0497	0.573571	0	-0.616674	0.501548	1.07584	-0.0528183
1.36667	0	0	0	0	0	0	0	0	0	82.0046	153.863	-6.32842	0.548686	0	-0.613834	0.246718	0.462908	-0.0190396
1.375	0	0	0	0	0	0	0	0	0	38.8275	72.8533	0.438376	0.566239	0	-0.606793	0.0450241	0.0844801	0.000508338
1.38333	0	0	0	0	0	0	0	0	0	13.0634	32.7613	4.22531	0.676102	0	-0.598436	-0.0293849	-0.0736931	-0.00950439
1.39167	0	0	0	0	0	0	0	0	0	3.46811	13.9798	4.33697	0.756802	0	-0.581367	-0.00602767	-0.0242972	-0.00753777
1.4	0	0	0	0	0	0	0	0	0	0	0	0	0	0	0	0	0	0
1.40833	0	0	0	0	0	0	0	0	0	0	0	0	0	0	0	0	0	0
1.41667	0	0	0	0	0	0	0	0	0	0	0	0	0	0	0	0	0	0
1.425	0	0	0	0	0	0	0	0	0	0	0	0	0	0	0	0	0	0
1.43333	0	0	0	0	0	0	0	0	0	0	0	0	0	0	0	0	0	0
1.44167	0	0	0	0	0	0	0	0	0	0	0	0	0	0	0	0	0	0
1.45	0	0	0	0	0	0	0	0	0	0	0	0	0	0	0	0	0	0
1.45833	0	0	0	0	0	0	0	0	0	0	0	0	0	0	0	0	0	0
1.46667	-1.35503	11.5663	2.35843	1.00473	0	-0.675434	-0.442122	3.77388	0.769513	0	0	0	0	0	0	0	0	0
1.475	-2.66125	17.0115	0.26751	1.04013	0	-0.683738	-0.894984	5.721	0.0899644	0	0	0	0	0	0	0	0	0
1.48333	-5.47418	42.7739	-3.08535	1.12154	0	-0.640673	-0.970522	7.58342	-0.547004	0	0	0	0	0	0	0	0	0
1.49167	-14.1393	127.405	-6.91546	1.16984	0	-0.621884	-1.00204	9.02901	-0.49009	0	0	0	0	0	0	0	0	0
1.5	-33.7792	322.782	-10.1218	1.17838	0	-0.618564	-0.996868	9.52571	-0.298708	0	0	0	0	0	0	0	0	0
1.50833	-68.6649	641.182	-9.51408	1.17046	0	-0.620636	-0.934995	8.73084	-0.129551	0	0	0	0	0	0	0	0	0
1.51667	-116.192	979.071	0.0364376	1.15869	0	-0.623813	-0.786524	6.62752	0.000246653	0	0	0	0	0	0	0	0	0
1.525	-167.475	1186.61	20.2851	1.14693	0	-0.625844	-0.506041	3.58546	0.0612934	0	0	0	0	0	0	0	0	0
1.53333	-223.537	1255.28	44.2014	1.13535	0	-0.625855	-0.0538679	0.302496	0.0106516	0	0	0	0	0	0	0	0	0
1.54167	-275.835	1299.37	59.7644	1.1194	0	-0.624699	0.515198	-2.42693	-0.111626	0	0	0	0	0	0	0	0	0
1.55	-289.099	1395.8	60.729	1.09212	0	-0.624073	0.848432	-4.09632	-0.178224	0	0	0	0	0	0	0	0	0
1.55833	-252.748	1545.15	51.3381	1.05583	0	-0.62417	0.732804	-4.47992	-0.148847	0	0	0	0	0	0	0	0	0
1.56667	-195.89	1705.58	39.8204	1.02088	0	-0.623865	0.404948	-3.52581	-0.0823174	0	0	0	0	0	0	0	0	0
1.575	-146.444	1828.58	29.9092	0.991545	0	-0.622671	0.120825	-1.50868	-0.0246768	0	0	0	0	0	0	0	0	0
1.58333	-109.89	1895.11	20.3293	0.964378	0	-0.621031	-0.0623348	1.07499	0.0115318	0	0	0	0	0	0	0	0	0
1.59167	-75.2497	1913.68	10.0795	0.936224	0	-0.61944	-0.144895	3.68482	0.0194082	0	0	0	0	0	0	0	0	0
1.6	-38.2136	1896.28	0.888012	0.9079	0	-0.618008	-0.117535	5.83245	0.0027313	0	0	0	0	0	0	0	0	0
1.60833	-5.64615	1848.17	-5.07705	0.881017	0	-0.616651	-0.0218469	7.1512	-0.0196449	0	0	0	0	0	0	0	0	0
1.61667	22.323	1771.79	-7.24857	0.854762	0	-0.615522	0.0939334	7.45554	-0.0305015	0	0	0	0	0	0	0	0	0
1.625	52.1649	1668.54	-5.77108	0.827244	0	-0.614972	0.21135	6.76023	-0.023382	0	0	0	0	0	0	0	0	0
1.63333	86.7318	1537.59	-0.360869	0.797225	0	-0.615209	0.297111	5.26721	-0.00123621	0	0	0	0	0	0	0	0	0
1.64167	126.284	1376.06	8.64021	0.763678	0	-0.615958	0.305275	3.32644	0.0208865	0	0	0	0	0	0	0	0	0
1.65	169.423	1184.67	18.7977	0.726145	0	-0.616744	0.195698	1.36839	0.021713	0	0	0	0	0	0	0	0	0
1.65833	204.191	974.709	26.5311	0.687538	0	-0.617666	-0.0391952	-0.187099	-0.00509275	0	0	0	0	0	0	0	0	0
